<svg version="1.2" xmlns="http://www.w3.org/2000/svg" viewBox="0 0 800 800" width="800" height="800">
	<style>
		.s0 { fill: #ededed } 
		.s1 { fill: #1c274c } 
	</style>
	<path id="Forma 1" fill-rule="evenodd" class="s0" d="m399.75 809.5c-217.74 0-393.75-176.01-393.75-393.75 0-217.74 176.01-393.75 393.75-393.75 217.74 0 393.75 176.01 393.75 393.75 0 217.74-176.01 393.75-393.75 393.75z"/>
	<path fill-rule="evenodd" class="s1" d="m208.2 154.51c27.13-21.18 64.63-21.18 139.62-21.18h104.36c74.99 0 112.49 0 139.62 21.18 27.12 21.18 36.22 57.56 54.41 130.32l14.21 56.84h72.91c13.81 0 25 11.19 25 25 0 13.8-11.19 25-25 25h-666.66c-13.81 0-25-11.2-25-25 0-13.81 11.19-25 25-25h72.91l14.21-56.84c18.19-72.76 27.29-109.14 54.41-130.32zm-108.2 428.82c0-64.43 52.23-116.66 116.67-116.66 55.33 0 101.67 38.52 113.65 90.21l13.78-6.88c35.19-17.6 76.61-17.6 111.8 0l13.78 6.88c11.98-51.69 58.32-90.21 113.65-90.21 64.44 0 116.67 52.23 116.67 116.66 0 64.44-52.23 116.67-116.67 116.67-54.1 0-99.61-36.83-112.8-86.79l-36.99-18.49c-21.11-10.56-45.97-10.56-67.08 0l-36.99 18.49c-13.19 49.96-58.7 86.79-112.8 86.79-64.44 0-116.67-52.23-116.67-116.67z"/>
</svg>