<?xml version="1.0" standalone="no"?>
<!DOCTYPE svg PUBLIC "-//W3C//DTD SVG 20010904//EN"
 "http://www.w3.org/TR/2001/REC-SVG-20010904/DTD/svg10.dtd">
<svg version="1.0" xmlns="http://www.w3.org/2000/svg"
 width="3840.000000pt" height="3840.000000pt" viewBox="0 0 3840.000000 3840.000000"
 preserveAspectRatio="xMidYMid meet">

<g transform="translate(0.000000,3840.000000) scale(0.100000,-0.100000)"
fill="#000000" stroke="none">
<path d="M5317 34168 c-10 -8 -316 -916 -781 -2313 l-764 -2300 509 -2440
c280 -1342 507 -2445 505 -2451 -3 -6 -144 -114 -315 -240 -196 -144 -313
-237 -317 -251 -3 -12 -3 -30 0 -40 3 -10 210 -173 460 -363 250 -190 454
-348 453 -353 -1 -4 -155 -128 -342 -275 -305 -239 -340 -271 -343 -298 -3
-30 22 -54 455 -450 252 -229 459 -421 461 -425 2 -4 -120 -96 -270 -204 -274
-197 -302 -223 -282 -263 5 -10 315 -377 688 -815 l679 -797 18 29 c14 24 34
34 101 54 46 14 1471 431 3167 928 2511 734 3089 900 3110 892 22 -7 26 -15
26 -50 0 -40 1 -40 21 -24 11 9 991 837 2177 1841 l2157 1824 0 56 c0 37 -11
86 -32 149 l-33 94 -95 72 c-94 71 -10842 8049 -11178 8297 -172 127 -201 141
-235 116z"/>
<path d="M32979 34157 c-86 -59 -11376 -8442 -11395 -8461 -29 -28 -81 -176
-88 -248 l-6 -57 2168 -1833 c1192 -1008 2175 -1839 2185 -1847 17 -13 17 -13
7 11 -15 32 0 65 35 74 15 4 106 -18 247 -60 1472 -431 6108 -1786 6112 -1786
2 0 9 -14 15 -32 10 -28 13 -30 25 -17 7 7 320 371 695 808 455 530 681 800
681 815 0 12 -6 29 -12 38 -7 8 -134 102 -281 207 -147 106 -267 196 -265 200
2 4 209 195 461 425 518 472 495 443 410 513 -27 22 -184 144 -350 273 -167
128 -303 236 -303 239 1 3 205 161 455 351 459 348 483 369 458 409 -5 9 -147
120 -316 246 -168 127 -306 235 -306 240 -1 6 228 1108 508 2450 l508 2440
-634 1895 c-350 1042 -695 2075 -768 2295 -73 220 -140 408 -149 418 -22 23
-57 21 -97 -6z"/>
<path d="M10675 18894 l-17 -27 299 -301 c164 -165 467 -472 673 -681 207
-209 546 -553 755 -765 209 -212 514 -520 678 -685 l297 -301 87 -27 c163 -52
3168 -935 3203 -942 l35 -6 184 1003 c101 552 239 1307 308 1678 108 592 136
771 122 784 -2 2 -686 33 -1519 70 -833 37 -1765 78 -2070 92 -1486 65 -2605
115 -2795 124 -115 5 -213 10 -216 10 -4 0 -14 -12 -24 -26z"/>
<path d="M26570 18870 c-1465 -67 -1345 -61 -3453 -155 -1050 -47 -1931 -85
-1958 -85 l-49 0 0 -52 c0 -47 74 -466 390 -2218 54 -300 124 -693 156 -873
l59 -328 35 6 c39 7 3045 887 3204 938 l99 32 1140 1160 c627 638 1232 1253
1345 1366 l204 206 -17 27 c-15 22 -24 26 -64 25 -25 -1 -516 -23 -1091 -49z"/>
<path d="M11227 10936 c918 -1375 1579 -2358 1582 -2348 8 39 34 54 82 49 l46
-6 7 47 c9 61 89 734 231 1937 63 534 158 1332 210 1775 l95 805 -37 32 -38
33 -165 0 c-91 0 -822 9 -1625 20 -803 11 -1574 20 -1713 20 l-253 0 1578
-2364z"/>
<path d="M26705 13279 c-687 -9 -1356 -18 -1485 -18 l-236 -1 -33 -28 -33 -27
61 -510 c59 -496 189 -1593 371 -3140 50 -418 95 -797 101 -842 l12 -82 46 6
c48 5 74 -10 82 -49 3 -10 661 968 1582 2348 l1578 2364 -398 -1 c-219 -1
-960 -10 -1648 -20z"/>
<path d="M17175 10805 c-193 -133 -282 -200 -287 -217 -4 -12 -74 -624 -157
-1358 -105 -940 -146 -1340 -139 -1353 11 -22 47 -37 70 -28 9 3 77 63 151
134 l135 127 2249 0 2248 -1 148 -131 c159 -141 183 -152 220 -107 14 17 17
33 14 59 -3 19 -76 616 -162 1325 -86 710 -158 1304 -161 1321 -4 28 -33 51
-286 225 -155 107 -285 196 -290 197 -4 2 -8 -10 -8 -27 0 -66 131 -61 -1731
-61 -1621 0 -1687 1 -1702 18 -10 10 -17 31 -17 45 0 15 -3 27 -7 26 -5 0
-134 -87 -288 -194z"/>
</g>
</svg>
